<svg xmlns="http://www.w3.org/2000/svg" version="1.1" width="646" height="684" style="shape-rendering:geometricPrecision; text-rendering:geometricPrecision; image-rendering:optimizeQuality; fill-rule:evenodd; clip-rule:evenodd" xmlns:xlink="http://www.w3.org/1999/xlink">
<g><path style="opacity:0.998" fill="#002e59" d="M 268.5,-0.5 C 272.833,-0.5 277.167,-0.5 281.5,-0.5C 292.644,2.4737 300.144,9.4737 304,20.5C 305.558,49.146 305.892,77.8127 305,106.5C 304.202,116.27 299.702,123.77 291.5,129C 246.337,154.747 201.337,180.747 156.5,207C 145,213.148 133.667,212.814 122.5,206C 100.998,193.081 79.3308,180.414 57.5,168C 47.7843,159.66 44.2843,149.16 47,136.5C 49.2623,129.248 53.429,123.415 59.5,119C 128.968,78.606 198.634,38.7727 268.5,-0.5 Z"/></g>
<g><path style="opacity:0.998" fill="#002e59" d="M 363.5,-0.5 C 367.833,-0.5 372.167,-0.5 376.5,-0.5C 446.366,38.7727 516.032,78.606 585.5,119C 599.089,129.929 602.255,143.429 595,159.5C 592.872,162.63 590.372,165.463 587.5,168C 565.167,181 542.833,194 520.5,207C 506.743,213.654 493.743,212.32 481.5,203C 438.833,178.333 396.167,153.667 353.5,129C 345.755,123.912 341.255,116.745 340,107.5C 339.059,78.4692 339.392,49.4692 341,20.5C 344.856,9.4737 352.356,2.4737 363.5,-0.5 Z"/></g>
<g><path style="opacity:0.999" fill="#002e58" d="M -0.5,464.5 C -0.5,382.5 -0.5,300.5 -0.5,218.5C 8.08203,198.386 22.7487,192.219 43.5,200C 66.6637,213.081 89.6637,226.414 112.5,240C 118.778,245.39 122.278,252.223 123,260.5C 123.667,314.167 123.667,367.833 123,421.5C 122.094,430.812 117.927,438.312 110.5,444C 89.1667,456.333 67.8333,468.667 46.5,481C 25.0553,491.256 9.38865,485.756 -0.5,464.5 Z"/></g>
<g><path style="opacity:0.993" fill="#002d59" d="M 645.5,214.5 C 645.5,298.833 645.5,383.167 645.5,467.5C 637.849,482.791 625.515,488.625 608.5,485C 584.597,472.1 560.931,458.767 537.5,445C 530.738,440.905 526.238,435.072 524,427.5C 523.333,370.167 523.333,312.833 524,255.5C 526.233,248.27 530.399,242.437 536.5,238C 560.037,224.399 583.703,211.066 607.5,198C 624.432,193.971 637.099,199.471 645.5,214.5 Z M 615.5,213.5 C 621.774,213.884 626.274,216.884 629,222.5C 629.667,301.5 629.667,380.5 629,459.5C 624.063,469.278 616.896,471.112 607.5,465C 585.586,452.796 564.086,439.963 543,426.5C 542.333,425.167 541.667,423.833 541,422.5C 540.013,367.442 540.346,312.442 542,257.5C 544.179,254.989 546.679,252.822 549.5,251C 571.432,238.206 593.432,225.706 615.5,213.5 Z"/></g>
<g><path style="opacity:0.998" fill="#002e59" d="M 281.5,683.5 C 277.167,683.5 272.833,683.5 268.5,683.5C 198.634,644.227 128.968,604.394 59.5,564C 48.5328,555.882 44.3661,545.049 47,531.5C 48.3481,524.639 51.8481,519.139 57.5,515C 81.8739,500.48 106.541,486.48 131.5,473C 140.227,470.632 148.56,471.632 156.5,476C 201.337,502.253 246.337,528.253 291.5,554C 299.702,559.23 304.202,566.73 305,576.5C 305.902,605.189 305.569,633.855 304,662.5C 300.144,673.526 292.644,680.526 281.5,683.5 Z"/></g>
<g><path style="opacity:0.99" fill="#002e59" d="M 376.5,683.5 C 372.167,683.5 367.833,683.5 363.5,683.5C 352.356,680.526 344.856,673.526 341,662.5C 339.392,633.531 339.059,604.531 340,575.5C 341.255,566.255 345.755,559.088 353.5,554C 399.997,527.586 446.33,500.919 492.5,474C 502.132,470.37 511.466,471.037 520.5,476C 542.833,489 565.167,502 587.5,515C 599.561,526.818 601.728,540.318 594,555.5C 591.833,559 589,561.833 585.5,564C 516.032,604.394 446.366,644.227 376.5,683.5 Z M 500.5,489.5 C 505.618,488.889 510.285,490.056 514.5,493C 535.167,505 555.833,517 576.5,529C 582.244,534.288 582.91,540.121 578.5,546.5C 511.997,585.586 445.331,624.419 378.5,663C 369.653,668.493 362.819,666.66 358,657.5C 357.333,630.167 357.333,602.833 358,575.5C 358.667,574.167 359.333,572.833 360,571.5C 406.743,543.904 453.576,516.571 500.5,489.5 Z"/></g>
</svg>
